<?xml version="1.0" encoding="utf-8"?>
<!-- Generator: Adobe Illustrator 24.2.3, SVG Export Plug-In . SVG Version: 6.00 Build 0)  -->
<svg version="1.1" id="Layer_1" xmlns="http://www.w3.org/2000/svg" xmlns:xlink="http://www.w3.org/1999/xlink" x="0px" y="0px"
	 viewBox="0 0 60.8 9" style="enable-background:new 0 0 60.8 9;" xml:space="preserve">
<style type="text/css">
	.st0{clip-path:url(#SVGID_2_);}
	.st1{fill:#244F48;}
</style>
<g>
	<defs>
		<rect id="SVGID_1_" y="-5.9" width="60.8" height="20.3"/>
	</defs>
	<clipPath id="SVGID_2_">
		<use xlink:href="#SVGID_1_"  style="overflow:visible;"/>
	</clipPath>
	<g class="st0">
		<path class="st1" d="M-2.4,2c0.7-0.7,1.7-1.1,2.7-1.2c1,0.1,2,0.5,2.7,1.2c0.8,0.7,1.8,1.2,2.8,1.3C6.9,3.1,7.9,2.7,8.7,2
			c0.7-0.7,1.7-1.1,2.7-1.2c1,0.1,1.9,0.5,2.6,1.2c0.8,0.7,1.8,1.2,2.9,1.3c1.1-0.1,2.1-0.5,2.9-1.3c0.7-0.7,1.7-1.1,2.7-1.2
			c1,0.1,2,0.5,2.7,1.2c0.4,0.3,0.9,0.6,1.4,0.9l0,0L26.7,3l0,0L27,3.1h0.1l0.3,0.1h0.1c0.1,0,0.3,0,0.4,0l0,0c0.1,0,0.3,0,0.4,0
			h0.1l0.3-0.1h0.1L29.1,3l0,0l0.3-0.1l0,0c0.5-0.3,0.9-0.6,1.4-0.9c0.7-0.7,1.7-1.1,2.7-1.2c1,0.1,1.9,0.5,2.7,1.2
			c0.8,0.7,1.8,1.2,2.9,1.3c1.1-0.1,2.1-0.5,2.8-1.3c0.7-0.7,1.7-1.1,2.7-1.2c1,0.1,1.9,0.5,2.7,1.2C48,2.7,49,3.1,50.1,3.2
			c1.1-0.1,2.1-0.5,2.8-1.3c0.7-0.7,1.7-1.1,2.7-1.2c1,0.1,1.9,0.5,2.7,1.2c0.8,0.7,1.8,1.2,2.8,1.3c0.5,0,1-0.1,1.5-0.4l-0.1-0.7
			c-0.4,0.2-0.9,0.3-1.4,0.3c-1-0.1-1.9-0.5-2.7-1.2c-0.8-0.7-1.8-1.2-2.8-1.3c-1.1,0.1-2.1,0.5-2.8,1.3C52,2,51.1,2.4,50.1,2.5
			c-1-0.1-1.9-0.5-2.7-1.2c-0.8-0.7-1.8-1.2-2.9-1.3c-1.1,0.1-2.1,0.5-2.8,1.3C40.9,2,40,2.4,39,2.5c-1-0.1-1.9-0.5-2.7-1.2
			c-0.8-0.7-1.8-1.2-2.8-1.3c-1.1,0.1-2.1,0.5-2.9,1.3c-0.5,0.4-1,0.7-1.5,0.9L29,2.3l-0.2,0.1h-0.1h-0.2h-0.1h-0.4h-0.4h-0.1h-0.2
			h-0.2l-0.2-0.1l-0.1-0.1c-0.5-0.3-1-0.6-1.5-0.9c-0.8-0.7-1.8-1.2-2.9-1.3c-1.1,0.1-2.1,0.5-2.9,1.3c-0.7,0.7-1.7,1.1-2.7,1.2
			c-1-0.1-1.9-0.5-2.7-1.2c-0.8-0.7-1.8-1.2-2.8-1.3c-1.1,0.1-2.1,0.5-2.8,1.3C7.8,2,6.8,2.4,5.8,2.5C4.8,2.4,3.9,2,3.2,1.3
			C2.4,0.5,1.4,0.1,0.3,0c-1.1,0.1-2.1,0.5-2.8,1.3C-3.3,2-4.2,2.4-5.2,2.5c-0.5,0-0.9-0.1-1.4-0.3l-0.1,0.7c0.5,0.2,1,0.4,1.5,0.4
			C-4.2,3.1-3.2,2.7-2.4,2z"/>
		<path class="st1" d="M61.1,8.2c-1-0.1-1.9-0.5-2.7-1.2c-0.8-0.7-1.8-1.2-2.8-1.3c-1.1,0.1-2.1,0.5-2.8,1.3
			c-0.7,0.7-1.7,1.1-2.7,1.2c-1-0.1-1.9-0.5-2.7-1.2c-0.8-0.7-1.8-1.2-2.8-1.3c-1.1,0.1-2.1,0.5-2.8,1.3C40.9,7.7,40,8.1,39,8.2
			c-1-0.1-1.9-0.5-2.7-1.2c-0.8-0.7-1.8-1.2-2.8-1.3c-1.1,0.1-2.1,0.5-2.9,1.3c-0.5,0.4-1,0.7-1.5,0.9L29,8l-0.2,0.1h-0.1l-0.2,0.1
			h-0.1h-0.4c-0.1,0-0.2,0-0.4,0h-0.1l-0.2-0.1h-0.1L26.9,8l-0.1-0.1c-0.5-0.3-1-0.6-1.5-0.9c-0.8-0.7-1.8-1.2-2.9-1.3
			c-1.1,0.1-2.1,0.5-2.9,1.3c-0.7,0.7-1.7,1.1-2.7,1.2c-1-0.1-1.9-0.5-2.7-1.2c-0.8-0.7-1.8-1.2-2.9-1.3C10.3,5.8,9.3,6.3,8.5,7
			C7.8,7.7,6.8,8.1,5.8,8.2C4.8,8.1,3.9,7.7,3.2,7C2.4,6.3,1.4,5.8,0.3,5.7C-0.8,5.8-1.8,6.3-2.5,7c-0.7,0.7-1.7,1.1-2.7,1.2
			c-0.5,0-0.9-0.1-1.4-0.4l-0.1,0.7C-6.3,8.8-5.8,9-5.2,9c1.1-0.1,2.1-0.6,2.8-1.3C-1.6,7-0.7,6.6,0.3,6.5c1,0.1,2,0.5,2.7,1.2
			C3.8,8.4,4.8,8.8,5.8,9c1.1-0.1,2.1-0.6,2.9-1.3c0.7-0.7,1.7-1.1,2.7-1.2c1,0.1,1.9,0.5,2.6,1.2c0.8,0.7,1.8,1.2,2.9,1.3
			C18,8.9,19,8.4,19.7,7.7c0.7-0.7,1.7-1.1,2.7-1.2c1,0.1,1.9,0.5,2.7,1.2C25.5,8,26,8.3,26.5,8.5l0,0l0.3,0.1l0,0
			c0.1,0,0.2,0.1,0.3,0.1h0.1l0.3,0.1h0.1h0.4l0,0h0.4h0.1l0.3-0.1h0.1c0.1,0,0.2-0.1,0.3-0.1l0,0l0.3-0.1l0,0
			c0.5-0.2,1-0.5,1.4-0.9c0.7-0.7,1.7-1.1,2.7-1.2c1,0.1,1.9,0.5,2.7,1.2C36.9,8.4,37.9,8.9,39,9c1.1-0.1,2.1-0.6,2.8-1.3
			c0.7-0.7,1.7-1.1,2.7-1.2c1,0.1,1.9,0.5,2.7,1.2C48,8.4,49,8.9,50.1,9c1.1-0.1,2.1-0.6,2.8-1.3c0.7-0.7,1.7-1.1,2.7-1.2
			c1,0.1,1.9,0.5,2.7,1.2c0.8,0.7,1.8,1.2,2.8,1.3c0.5,0,1-0.1,1.5-0.4l-0.1-0.7C62.1,8.1,61.6,8.2,61.1,8.2z"/>
	</g>
</g>
</svg>
